<?xml version="1.0" encoding="iso-8859-1"?>
<!-- Generator: Adobe Illustrator 22.1.0, SVG Export Plug-In . SVG Version: 6.00 Build 0)  -->
<svg version="1.1" id="&#x421;&#x43B;&#x43E;&#x439;_1"
	 xmlns="http://www.w3.org/2000/svg" xmlns:xlink="http://www.w3.org/1999/xlink" x="0px" y="0px" viewBox="0 0 68.03 68.029"
	 style="enable-background:new 0 0 68.03 68.029;" xml:space="preserve">
<g>
	<path style="fill:#fff;" d="M34.015,68.029c18.786,0,34.015-15.229,34.015-34.015C68.03,15.23,52.801,0,34.015,0
		C15.229,0,0,15.23,0,34.015C0,52.801,15.229,68.029,34.015,68.029z M24.613,30.922v-4.868h3.996v-3.642
		c0-3.296,1.57-8.446,8.48-8.446l6.225,0.026v6.904c0,0-3.786,0-4.52,0c-0.735,0-1.782,0.366-1.782,1.935v3.222h6.404l-0.445,4.893
		l-0.289,3.165h-5.981c0,9.022,0,20.146,0,20.146h-8.058c0,0,0-11.014,0-20.146h-4.03V30.922z"/>
</g>
</svg>
