<?xml version="1.0" encoding="iso-8859-1"?>
<!-- Generator: Adobe Illustrator 22.1.0, SVG Export Plug-In . SVG Version: 6.00 Build 0)  -->
<svg version="1.1" id="&#x421;&#x43B;&#x43E;&#x439;_1"
	 xmlns="http://www.w3.org/2000/svg" xmlns:xlink="http://www.w3.org/1999/xlink" x="0px" y="0px" viewBox="0 0 68.03 68.029"
	 style="enable-background:new 0 0 68.03 68.029;" xml:space="preserve">
<g>
	<path style="fill:#fff;" d="M0,34.014C0,52.801,15.229,68.03,34.015,68.03c18.785,0,34.015-15.229,34.015-34.016
		C68.03,15.229,52.801,0,34.015,0C15.229,0,0,15.229,0,34.014z M54.161,21.654v8.227v3.032v13.462c0,4.293-3.495,7.786-7.789,7.786
		H21.655c-4.294,0-7.785-3.493-7.785-7.786V32.909v-3.028v-8.227c0-4.293,3.491-7.785,7.785-7.785h24.718
		C50.667,13.869,54.161,17.361,54.161,21.654z"/>
	<polygon style="fill:#fff;" points="49.497,25.338 49.497,19.398 49.497,18.509 48.608,18.514 42.668,18.532 42.693,25.36 	"/>
	<path style="fill:#fff;" d="M34.015,41.104c3.908,0,7.093-3.181,7.093-7.09c0-1.255-0.339-2.433-0.916-3.457
		c-0.131-0.233-0.271-0.46-0.426-0.676c-1.291-1.786-3.384-2.956-5.75-2.956c-2.367,0-4.459,1.17-5.75,2.956
		c-0.155,0.216-0.294,0.443-0.426,0.675c-0.578,1.025-0.916,2.203-0.916,3.458C26.923,37.923,30.104,41.104,34.015,41.104z"/>
	<path style="fill:#fff;" d="M23.808,29.881h-6.014v2.089v14.406c0,2.13,1.731,3.861,3.861,3.861h24.718
		c2.13,0,3.864-1.732,3.864-3.861V31.971v-2.09h-6.017c0.15,0.369,0.279,0.749,0.39,1.136c0.273,0.953,0.424,1.958,0.424,2.997
		c0,6.075-4.942,11.018-11.017,11.018s-11.017-4.943-11.017-11.018c0-1.039,0.149-2.044,0.421-2.997
		C23.53,30.629,23.658,30.249,23.808,29.881z"/>
</g>
</svg>
