<svg id="Layer_1" data-name="Layer 1" xmlns="http://www.w3.org/2000/svg" viewBox="0 0 621.41 226.06"><defs><style>.cls-1{fill:#fff;}.cls-2{fill:#fff;}.cls-3{fill:#fff;}.cls-4{fill:#fff;}.cls-5{fill:#fff;}.cls-6{fill:#fff;}</style></defs><title>Logo_CMYK</title><path class="cls-1" d="M163.21,256.08H123l-2.48,6.55a14.52,14.52,0,0,1-3.4,4.95,14,14,0,0,1-4.91,3,15.81,15.81,0,0,1-5.8.88,16.07,16.07,0,0,1-6-1.33,13.78,13.78,0,0,1-4.87-3.35,13.27,13.27,0,0,1-2.83-4.74,14.44,14.44,0,0,1-.71-5.57,16.49,16.49,0,0,1,1.51-5.89l35.83-83.25a15.39,15.39,0,0,1,5.44-6.68,15.12,15.12,0,0,1,16.19,0,14.12,14.12,0,0,1,5.35,6.59l36.28,83.34a17.85,17.85,0,0,1,1.46,5.75,14.81,14.81,0,0,1-.62,5.58,13.16,13.16,0,0,1-2.7,4.77,13.72,13.72,0,0,1-4.78,3.45,14,14,0,0,1-5.84,1.38,15.59,15.59,0,0,1-5.71-1,15.31,15.31,0,0,1-4.91-3,14.61,14.61,0,0,1-3.53-4.9ZM135,226.26h16L143,206Z" transform="translate(-91.96 -46.66)"/><path class="cls-1" d="M258.06,238.64l-11,25.84a11.21,11.21,0,0,1-4.65,5.4,11.85,11.85,0,0,1-6.77,1.68,11.49,11.49,0,0,1-6.06-1.9,11.07,11.07,0,0,1-4.2-5.18l-38.66-90.41a10.59,10.59,0,0,1-.93-4.52,11.12,11.12,0,0,1,3.36-7.92,11.11,11.11,0,0,1,3.94-2.52,10.57,10.57,0,0,1,4.33-.84,11.14,11.14,0,0,1,4.16.88,11.74,11.74,0,0,1,3.54,2.4,11.94,11.94,0,0,1,2.57,3.76L236,231.66l9.62-22.41Z" transform="translate(-91.96 -46.66)"/><path class="cls-2" d="M284.53,231.58,342.85,95.35a10.77,10.77,0,0,1,2.48-3.76,11.64,11.64,0,0,1,3.58-2.39,11.32,11.32,0,0,1,4.21-.88,11.19,11.19,0,0,1,4.42.84,12.08,12.08,0,0,1,3.89,2.48A10.43,10.43,0,0,1,364,95.27a11.83,11.83,0,0,1,.89,4.33,10.55,10.55,0,0,1-.93,4.51L295.23,264.48A11.49,11.49,0,0,1,285,271.56h0a11.49,11.49,0,0,1-6.06-1.9,11.07,11.07,0,0,1-4.2-5.18l-38.66-90.41a10.59,10.59,0,0,1-.93-4.52,11.12,11.12,0,0,1,3.36-7.92,11.11,11.11,0,0,1,3.94-2.52,10.57,10.57,0,0,1,4.33-.84,11.18,11.18,0,0,1,4.16.88,11.77,11.77,0,0,1,6.1,6.16Z" transform="translate(-91.96 -46.66)"/><path class="cls-1" d="M402,249.89H351.34l-6.63,15.92A9.46,9.46,0,0,1,342.5,269a9.09,9.09,0,0,1-3.14,1.94,10.49,10.49,0,0,1-7.57-.26,8.6,8.6,0,0,1-5-5.22,9.21,9.21,0,0,1-.44-3.63,11.63,11.63,0,0,1,.93-3.8l40.43-93.88a9.62,9.62,0,0,1,3.54-4.33,9.49,9.49,0,0,1,5.31-1.51,9.21,9.21,0,0,1,5.13,1.51,9.73,9.73,0,0,1,3.54,4.25l40.7,94a10.39,10.39,0,0,1,.48,7.34,8.3,8.3,0,0,1-4.82,5.31,10.21,10.21,0,0,1-3.8.84,9.51,9.51,0,0,1-3.67-.62A9.83,9.83,0,0,1,411,269a9.64,9.64,0,0,1-2.3-3.14ZM359,230.69H394L376.65,189Z" transform="translate(-91.96 -46.66)"/><path class="cls-1" d="M444.45,158.31h32.2a42.7,42.7,0,0,1,16.2,3.1,42.09,42.09,0,0,1,13.27,8.5,39.65,39.65,0,0,1,12.21,28.84,38.62,38.62,0,0,1-1.73,11.67,37.56,37.56,0,0,1-12.25,18.14,41.37,41.37,0,0,1-9.56,5.84l19.29,24.07a7.57,7.57,0,0,1,2.26,5.53,7.75,7.75,0,0,1-.67,2.87,7.24,7.24,0,0,1-1.77,2.48,7,7,0,0,1-5,2.17,7.29,7.29,0,0,1-5-2.26l-25.66-31.14H451.79V264a7.17,7.17,0,0,1-2.25,5.36,7.49,7.49,0,0,1-5.35,2.16,7.56,7.56,0,0,1-5.44-2.16,7.14,7.14,0,0,1-2.26-5.36V165.92a7.23,7.23,0,0,1,2.26-5.39,7.46,7.46,0,0,1,5.44-2.22Zm7.34,15.31V222.9h24.95a28.06,28.06,0,0,0,10.4-1.9,27.06,27.06,0,0,0,8.36-5.13,23.07,23.07,0,0,0,5.53-7.66,22.7,22.7,0,0,0,2-9.46,23.91,23.91,0,0,0-2-9.69,25.25,25.25,0,0,0-5.53-8,26.65,26.65,0,0,0-8.27-5.44,26.23,26.23,0,0,0-10.22-2Z" transform="translate(-91.96 -46.66)"/><path class="cls-1" d="M542.39,158.31h31.94a55.71,55.71,0,0,1,15.08,2,57.67,57.67,0,0,1,34.29,26.23,59,59,0,0,1,5.79,13.59,55.23,55.23,0,0,1,0,30,57.46,57.46,0,0,1-5.79,13.45,56.88,56.88,0,0,1-9,11.41,57.28,57.28,0,0,1-25.31,14.51,56.89,56.89,0,0,1-15.08,2H542a5.61,5.61,0,0,1-4.07-1.63,5.41,5.41,0,0,1-1.68-4V164a5.36,5.36,0,0,1,1.68-4.07,5.7,5.7,0,0,1,4.07-1.6Zm5.31,11.51v90.24h26.72a44,44,0,0,0,18.27-3.76A45.84,45.84,0,0,0,616.57,232a42.46,42.46,0,0,0,1.86-28A45.7,45.7,0,0,0,614,193.27a47.92,47.92,0,0,0-7-9.34A45.41,45.41,0,0,0,587,171.58a43.7,43.7,0,0,0-12.47-1.76Z" transform="translate(-91.96 -46.66)"/><path class="cls-1" d="M676,214.5a107.94,107.94,0,0,1-11.28-3.63,48.34,48.34,0,0,1-10.58-5.57,28.87,28.87,0,0,1-7.82-8.15,20.67,20.67,0,0,1-3.06-11.41,24,24,0,0,1,3-12,28.49,28.49,0,0,1,7.79-8.89,36,36,0,0,1,10.7-5.49,38.61,38.61,0,0,1,11.77-1.9,45.46,45.46,0,0,1,9.91,1.06,39.08,39.08,0,0,1,8.89,3.1,30.68,30.68,0,0,1,13,12.21,2.53,2.53,0,0,1,.31,2.25,4.91,4.91,0,0,1-1.11,1.82,3.62,3.62,0,0,1-4.86-.09q-5.31-7.17-11.9-9.95a36.08,36.08,0,0,0-14.2-2.79,32.88,32.88,0,0,0-8.67,1.24,27.38,27.38,0,0,0-8.28,3.8,21.68,21.68,0,0,0-6.19,6.46,17.48,17.48,0,0,0-2.52,9.12,13.85,13.85,0,0,0,2.83,8.88,24.72,24.72,0,0,0,7,6,43.46,43.46,0,0,0,8.85,3.94c3.12,1,5.93,1.86,8.4,2.57q6.72,2.3,13.1,5a53.86,53.86,0,0,1,11.32,6.32,29.4,29.4,0,0,1,7.92,8.72,23.46,23.46,0,0,1,3,12.12,31.14,31.14,0,0,1-3,14,32.53,32.53,0,0,1-8.14,10.53,36.73,36.73,0,0,1-11.72,6.68,40.94,40.94,0,0,1-13.71,2.34,43.15,43.15,0,0,1-11.86-1.63,44.33,44.33,0,0,1-10.57-4.52,37.81,37.81,0,0,1-8.45-6.77,27.78,27.78,0,0,1-5.49-8.4,3.7,3.7,0,0,1-.31-3.32,4.31,4.31,0,0,1,1.9-1.9,3.52,3.52,0,0,1,2.75-.26,5.62,5.62,0,0,1,2.48,2.21,23.09,23.09,0,0,0,4.77,6.94,31.29,31.29,0,0,0,7.08,5.36,37,37,0,0,0,8.58,3.4,37.82,37.82,0,0,0,9.47,1.2,33.63,33.63,0,0,0,10.26-1.64,29.18,29.18,0,0,0,9.2-4.82,24.25,24.25,0,0,0,6.59-8,23.73,23.73,0,0,0,2.52-11.19,16.67,16.67,0,0,0-2.56-9.38,23.69,23.69,0,0,0-6.77-6.68,49.85,49.85,0,0,0-9.51-4.86Q681.52,216.36,676,214.5Z" transform="translate(-91.96 -46.66)"/><path class="cls-1" d="M605,102.36a3.3,3.3,0,0,1-2-1,2.86,2.86,0,0,1-.81-2.09V75.05a3.11,3.11,0,0,1,.23-1.19,3.27,3.27,0,0,1,.65-1,2.91,2.91,0,0,1,1-.66,3.09,3.09,0,0,1,1.22-.25h16a3,3,0,0,1,1.19.25,2.7,2.7,0,0,1,1,.66,3.47,3.47,0,0,1,.65,1,3.12,3.12,0,0,1,.24,1.19,3.26,3.26,0,0,1-.24,1.21,3.12,3.12,0,0,1-.65,1,2.6,2.6,0,0,1-1,.67,2.94,2.94,0,0,1-1.19.24h-12.9v5.51H618.6a2.68,2.68,0,0,1,1.2.22,3.5,3.5,0,0,1,1,.68,3.13,3.13,0,0,1,.67,1,3.61,3.61,0,0,1,.23,1.21,2.94,2.94,0,0,1-1.89,2.8,3,3,0,0,1-1.2.23H608.34v6.38h12.9a2.65,2.65,0,0,1,1.19.25,2.89,2.89,0,0,1,1,.68,3.47,3.47,0,0,1,.65,1,3.36,3.36,0,0,1,.24,1.22,3.25,3.25,0,0,1-.24,1.2,3.07,3.07,0,0,1-.65,1,2.84,2.84,0,0,1-1,.66,2.77,2.77,0,0,1-1.19.22Z" transform="translate(-91.96 -46.66)"/><path class="cls-1" d="M640,82.76,648.67,73a3.45,3.45,0,0,1,.93-.74,2.64,2.64,0,0,1,1.08-.29,2.39,2.39,0,0,1,1.08.14,2.8,2.8,0,0,1,1,.62,3,3,0,0,1,.74,1,3.23,3.23,0,0,1,.31,1.16,3.29,3.29,0,0,1-.14,1.19,3.25,3.25,0,0,1-.62,1.06L644,87.3l8.87,9.93a2.89,2.89,0,0,1,.66,1.07,3.08,3.08,0,0,1,.22,1.18,2.85,2.85,0,0,1-.23,1.13,2.89,2.89,0,0,1-.72,1,3.35,3.35,0,0,1-1.06.62,3,3,0,0,1-1.17.17,3.1,3.1,0,0,1-2.11-1l-8.52-9.5-8.47,9.5a3.11,3.11,0,0,1-1,.73,3.38,3.38,0,0,1-1.14.3,2.82,2.82,0,0,1-1.15-.17,3.05,3.05,0,0,1-1.06-.62,2.76,2.76,0,0,1-1-2.11,3.25,3.25,0,0,1,.21-1.17,2.91,2.91,0,0,1,.67-1.07l8.84-9.93-9.06-10.16a3,3,0,0,1-.76-2.25,3.23,3.23,0,0,1,.31-1.16,2.89,2.89,0,0,1,.74-1,2.72,2.72,0,0,1,1-.62,2.38,2.38,0,0,1,1.09-.14,2.52,2.52,0,0,1,1.08.29,3.54,3.54,0,0,1,.95.74Z" transform="translate(-91.96 -46.66)"/><path class="cls-1" d="M668.76,72a11.34,11.34,0,0,1,4.5.91A11.68,11.68,0,0,1,679.41,79a11.48,11.48,0,0,1,.91,4.5,11.29,11.29,0,0,1-.91,4.46A11.58,11.58,0,0,1,673.26,94a11.51,11.51,0,0,1-4.5.9h-5.61v4.4a2.89,2.89,0,0,1-.24,1.2,2.43,2.43,0,0,1-.66,1,3.29,3.29,0,0,1-1,.65,3.06,3.06,0,0,1-1.2.24,2.91,2.91,0,0,1-1.19-.24,3.38,3.38,0,0,1-1-.65,2.79,2.79,0,0,1-.66-1,3.06,3.06,0,0,1-.24-1.2V75.05a2.94,2.94,0,0,1,.24-1.19,3.3,3.3,0,0,1,.66-1,3.06,3.06,0,0,1,1-.66,2.91,2.91,0,0,1,1.19-.25Zm-5.61,6.18V88.75h5.7a4.69,4.69,0,0,0,2-.43,5.56,5.56,0,0,0,1.69-1.15,5.66,5.66,0,0,0,1.14-1.69,4.62,4.62,0,0,0,.43-2,4.91,4.91,0,0,0-.43-2,6.35,6.35,0,0,0-1.16-1.69,6.49,6.49,0,0,0-1.69-1.18,5,5,0,0,0-2-.43Z" transform="translate(-91.96 -46.66)"/><path class="cls-3" d="M701.79,78.64a9.42,9.42,0,0,1,4.94,4.94,8.07,8.07,0,0,1,.43,1.37,1.53,1.53,0,0,0,1.49,1.2h3.16a1.56,1.56,0,0,0,1.54-1.79,9.87,9.87,0,0,0-.3-1.28,15.05,15.05,0,0,0-1.56-3.69,15.27,15.27,0,0,0-2.41-3.13,15.52,15.52,0,0,0-3.14-2.41,15.86,15.86,0,0,0-3.69-1.56c-.41-.11-.82-.2-1.24-.28a1.56,1.56,0,0,0-1.79,1.55V76.7a1.52,1.52,0,0,0,1.19,1.51,7.6,7.6,0,0,1,1.38.43" transform="translate(-91.96 -46.66)"/><path class="cls-2" d="M689.66,83.58a9.76,9.76,0,0,1,2-2.94,9.23,9.23,0,0,1,2.94-2A7.68,7.68,0,0,1,696,78.2a1.54,1.54,0,0,0,1.19-1.51V73.54A1.55,1.55,0,0,0,695.37,72c-.45.08-.89.17-1.33.29a15.61,15.61,0,0,0-3.68,1.56,15.13,15.13,0,0,0-3.12,2.41,14.79,14.79,0,0,0-2.38,3.13,15.86,15.86,0,0,0-1.56,3.69c-.11.43-.2.85-.27,1.28a1.55,1.55,0,0,0,1.53,1.79h3.16a1.53,1.53,0,0,0,1.5-1.2,8.1,8.1,0,0,1,.44-1.37" transform="translate(-91.96 -46.66)"/><path class="cls-4" d="M706.73,90.83a9.08,9.08,0,0,1-4.94,4.9,8.07,8.07,0,0,1-1.37.43,1.52,1.52,0,0,0-1.2,1.5v3.1a1.58,1.58,0,0,0,1.83,1.55,14.42,14.42,0,0,0,3.12-.9,15.86,15.86,0,0,0,4.91-3.31,16.06,16.06,0,0,0,3.32-4.91,13.25,13.25,0,0,0,.91-3.17,1.55,1.55,0,0,0-1.53-1.82h-3.12a1.54,1.54,0,0,0-1.5,1.22,7.66,7.66,0,0,1-.43,1.41" transform="translate(-91.96 -46.66)"/><path class="cls-5" d="M694.56,95.73a9.1,9.1,0,0,1-2.94-2,9.56,9.56,0,0,1-2-3,7.45,7.45,0,0,1-.45-1.43,1.52,1.52,0,0,0-1.49-1.2H684.6A1.57,1.57,0,0,0,683.06,90a14.75,14.75,0,0,0,.89,3.17,15.8,15.8,0,0,0,3.29,4.91,15.42,15.42,0,0,0,4.89,3.31,13.64,13.64,0,0,0,3.22.91,1.56,1.56,0,0,0,1.81-1.54V97.67a1.52,1.52,0,0,0-1.21-1.5,7.49,7.49,0,0,1-1.39-.44" transform="translate(-91.96 -46.66)"/><path class="cls-6" d="M538.35,76.42h-4.16v8.79h4.16a4.4,4.4,0,0,0,0-8.79Z" transform="translate(-91.96 -46.66)"/><path class="cls-6" d="M473.1,76.42H469v8.79h4.15a4.4,4.4,0,0,0,0-8.79Z" transform="translate(-91.96 -46.66)"/><path class="cls-6" d="M599.28,124,572.2,91.09a3.16,3.16,0,0,1-.35-.39l-.15-.15h0a4,4,0,0,1-.68-2.18,3.73,3.73,0,0,1,.77-2.28h0l0,0a2.79,2.79,0,0,1,.44-.47s0,0,0,0l27.11-32.9a6.25,6.25,0,0,0,1-1.3,6.2,6.2,0,0,0,.42-1.49,3.25,3.25,0,0,0-3-3.2H440.73a4.23,4.23,0,0,0-4.24,4.23v74.88a4.23,4.23,0,0,0,4.24,4.21l157,0a3.24,3.24,0,0,0,3-3.19,4.23,4.23,0,0,0-1.39-2.79Zm-113.56-31a17.83,17.83,0,0,1-12.06,4.4H469V109.9a2.05,2.05,0,0,1-2,2.06h-9.12a2,2,0,0,1-1.43-.62,2,2,0,0,1-.6-1.44l.07-43.54a2,2,0,0,1,2-2h15.41a18.31,18.31,0,0,1,12.5,4.54,16.69,16.69,0,0,1-.06,24.06Zm25.44,17a2,2,0,0,1-2,2H500a2,2,0,0,1-2-2V66.07a2,2,0,0,1,2-2l4.55-.08h.07l4.55.08a2,2,0,0,1,2,2Zm48.08.84a2,2,0,0,1-1.84,1.17H547.19a2.07,2.07,0,0,1-1.56-.72L534.19,97.57V109.9a2,2,0,0,1-2,2.06h-9.11a2.08,2.08,0,0,1-2-2.06l.09-43.54a2,2,0,0,1,2-2h15.4A18.33,18.33,0,0,1,551,68.86a16,16,0,0,1,5.08,12,16.26,16.26,0,0,1-3.06,9.76,15.83,15.83,0,0,1-5.21,4.5L559,108.57A2.1,2.1,0,0,1,559.24,110.74Z" transform="translate(-91.96 -46.66)"/></svg>