<svg id="_1" data-name="1" xmlns="http://www.w3.org/2000/svg" viewBox="0 0 485.8 68"><defs><style>.cls-1{fill:#606060;}</style></defs><title>social_grey</title><path class="cls-1" d="M68,113A34,34,0,1,0,34,79,34,34,0,0,0,68,113ZM58.6,75.9V71h4V67.4c0-3.3,1.6-8.5,8.5-8.5h6.2v6.9H72.8A1.7,1.7,0,0,0,71,67.8V71h6.4L77,75.9l-.3,3.2h-6V99.2h-8V79.1H58.6Z" transform="translate(-34 -45)"/><path class="cls-1" d="M171.4,113a34,34,0,1,0-32.9-32.9A34.1,34.1,0,0,0,171.4,113ZM153,77c0-.3.1-.6.1-.8a19.8,19.8,0,0,1,39.5.3V77a19.7,19.7,0,0,1-19.8,19.7,19.2,19.2,0,0,1-9.5-2.5l-11,3.5,3.6-10.5A19.9,19.9,0,0,1,153,77Z" transform="translate(-34 -45)"/><path class="cls-1" d="M157.3,92.8l6.4-2A16.7,16.7,0,0,0,189.5,77c0-.4-.1-.8-.1-1.3a16.6,16.6,0,0,0-33.1-.3,9.2,9.2,0,0,0-.1,1.6,16.3,16.3,0,0,0,3.2,9.7Zm7.6-24.1a1.6,1.6,0,0,1,1.3-.6h.9c.3,0,.7-.2,1.1.8l1.5,3.6a.8.8,0,0,1,0,.8l-.3.6-.2.2-.7.9c-.2.2-.5.5-.2.9a16.5,16.5,0,0,0,2.7,3.4,15.1,15.1,0,0,0,3.9,2.4c.5.2.8.2,1-.2l1.6-1.8c.3-.5.6-.4,1.1-.3l3.3,1.6c.5.2.8.3.9.5a4.4,4.4,0,0,1-.3,2.3c-.4,1.2-2.3,2.2-3.2,2.3s-.9.7-5.9-1.2-8-6.9-8.2-7.2a11.8,11.8,0,0,1-1.8-3.4,8.8,8.8,0,0,1-.2-1.6A5.1,5.1,0,0,1,164.9,68.7Z" transform="translate(-34 -45)"/><path class="cls-1" d="M276.9,45a34,34,0,1,0,34,34A34,34,0,0,0,276.9,45Zm19.8,17.2-7.3,34.7a2.3,2.3,0,0,1-3.6,1.4l-10.9-8.1-5.6,5.7a1.9,1.9,0,0,1-3.1-.7l-4.1-12.8-10.8-3.2a1.5,1.5,0,0,1-.1-2.9l42.6-16.6A2.2,2.2,0,0,1,296.7,62.2Z" transform="translate(-34 -45)"/><path class="cls-1" d="M287.8,66.6,264.5,81a1.3,1.3,0,0,0-.5,1.3l3.1,10.1a.2.2,0,0,0,.4-.1l.8-6.7a.8.8,0,0,1,.4-.7l19.7-17.5A.5.5,0,1,0,287.8,66.6Z" transform="translate(-34 -45)"/><path class="cls-1" d="M347.3,79a34,34,0,1,0,34-34A34,34,0,0,0,347.3,79Zm54.2-12.4V91.4a7.8,7.8,0,0,1-7.8,7.7H369a7.8,7.8,0,0,1-7.8-7.7V66.6a7.7,7.7,0,0,1,7.8-7.7h24.7A7.7,7.7,0,0,1,401.5,66.6Z" transform="translate(-34 -45)"/><polygon class="cls-1" points="362.8 25.3 362.8 19.4 362.8 18.5 361.9 18.5 356 18.5 356 25.4 362.8 25.3"/><path class="cls-1" d="M381.3,86.1a7.1,7.1,0,0,0,7.1-7.1,7,7,0,0,0-.9-3.5l-.4-.6a7,7,0,0,0-11.5,0,2.1,2.1,0,0,0-.4.6,7,7,0,0,0,6.1,10.6Z" transform="translate(-34 -45)"/><path class="cls-1" d="M371.1,74.9h-6V91.4a3.8,3.8,0,0,0,3.9,3.8h24.7a3.9,3.9,0,0,0,3.9-3.8V74.9h-6.1a3.6,3.6,0,0,1,.4,1.1,10.3,10.3,0,0,1,.4,3,11,11,0,0,1-22,0,15.4,15.4,0,0,1,.4-3C370.8,75.6,371,75.2,371.1,74.9Z" transform="translate(-34 -45)"/><path class="cls-1" d="M485.8,113a34,34,0,1,0-34.1-34A34,34,0,0,0,485.8,113ZM461.7,69.7c1.2-.6,4.6-.5,8-.4,1.1,0,4,7.5,4.8,8.7,3.1,5,4.1,1.3,4.1.9.9-9-1.3-8.6-2.6-8.7,1-2.9,7.7-2.4,7.7-2.4a11.3,11.3,0,0,1,3,1.1c.3.2.7.9.6,3.2s-.4,8.3,1.1,8.3,3.1-2.8,4.6-5.7,2.4-5,2.8-5.2a27.2,27.2,0,0,1,4.8-.2c2.1,0,4.3,0,4.8.4s-.8,4-2.6,6.6-4.3,4.8-4.1,6.3,7.5,6.4,6.9,9.8c-.2,1.5-2.7,1.2-5,1.3a16.3,16.3,0,0,1-5-.5c-1.5-.6-5.5-5.8-6.5-5.6s-1.5,5.3-2.2,5.6-4.2.4-5.4.3c-6.6-1.1-10.4-5.5-13.9-11.1S460.6,70.4,461.7,69.7Z" transform="translate(-34 -45)"/></svg>