<?xml version="1.0" encoding="iso-8859-1"?>
<!-- Generator: Adobe Illustrator 22.1.0, SVG Export Plug-In . SVG Version: 6.00 Build 0)  -->
<svg version="1.1" id="&#x421;&#x43B;&#x43E;&#x439;_1"
	 xmlns="http://www.w3.org/2000/svg" xmlns:xlink="http://www.w3.org/1999/xlink" x="0px" y="0px" viewBox="0 0 68.03 68.029"
	 style="enable-background:new 0 0 68.03 68.029;" xml:space="preserve">
<g>
	<path style="fill:#fff;" d="M34.016,0C15.23,0,0,15.23,0,34.014C0,52.802,15.23,68.03,34.016,68.03
		c18.786,0,34.015-15.228,34.015-34.015C68.03,15.23,52.801,0,34.016,0z M53.821,17.186l-7.268,34.746
		c-0.341,1.63-2.254,2.362-3.596,1.377l-10.973-8.055l-5.593,5.711c-0.982,1.002-2.677,0.597-3.099-0.741l-4.037-12.81L8.438,34.22
		c-1.419-0.419-1.503-2.397-0.124-2.934l42.568-16.589C52.503,14.066,54.177,15.484,53.821,17.186z"/>
	<path style="fill:#fff;" d="M44.932,21.584L21.583,36.065c-0.411,0.255-0.598,0.755-0.455,1.217l3.133,10.092
		c0.066,0.212,0.374,0.183,0.4-0.038l0.761-6.767c0.029-0.261,0.155-0.503,0.352-0.677l19.772-17.486
		C46.019,21.99,45.469,21.251,44.932,21.584z"/>
</g>
</svg>
