<?xml version="1.0" encoding="iso-8859-1"?>
<!-- Generator: Adobe Illustrator 22.1.0, SVG Export Plug-In . SVG Version: 6.00 Build 0)  -->
<svg version="1.1" id="&#x421;&#x43B;&#x43E;&#x439;_1"
	 xmlns="http://www.w3.org/2000/svg" xmlns:xlink="http://www.w3.org/1999/xlink" x="0px" y="0px" viewBox="0 0 68.03 68.029"
	 style="enable-background:new 0 0 68.03 68.029;" xml:space="preserve">
<g>
	<path style="fill:#fff;" d="M32.903,68.012C52.569,68.639,68.64,52.567,68.012,32.9C67.443,15.09,52.936,0.585,35.126,0.018
		C15.459-0.608-0.611,15.464,0.019,35.13C0.588,52.939,15.094,67.443,32.903,68.012z M14.601,32.047c0-0.291,0.01-0.578,0.022-0.865
		c0.457-10.438,9.126-18.762,19.758-18.762c10.756,0,19.499,8.52,19.767,19.128c0.004,0.168,0.012,0.332,0.012,0.5
		c0,10.84-8.854,19.626-19.779,19.626c-3.467,0-6.726-0.886-9.561-2.442l-10.951,3.48l3.569-10.532
		C15.638,39.22,14.601,35.754,14.601,32.047z"/>
	<path style="fill:#fff;" d="M18.84,47.846l6.39-2.031c2.626,1.725,5.771,2.729,9.15,2.729c9.169,0,16.63-7.402,16.63-16.501
		c0-0.434-0.023-0.863-0.055-1.289c-0.665-8.496-7.842-15.211-16.574-15.211c-8.625,0-15.736,6.551-16.55,14.901
		c-0.051,0.527-0.079,1.06-0.079,1.6c0,3.61,1.176,6.954,3.166,9.674L18.84,47.846z M26.43,23.688
		c0.444-0.482,0.969-0.602,1.293-0.602c0.323,0,0.645,0.04,0.929,0.04c0.284,0,0.686-0.162,1.092,0.802
		c0.402,0.963,1.374,3.332,1.494,3.572c0.121,0.242,0.203,0.523,0.041,0.844c-0.114,0.226-0.19,0.393-0.31,0.571
		c-0.05,0.074-0.104,0.149-0.176,0.231c-0.243,0.28-0.508,0.627-0.728,0.842c-0.241,0.24-0.495,0.5-0.212,0.981
		c0.281,0.482,1.255,2.056,2.697,3.331c1.852,1.639,3.415,2.148,3.899,2.388c0.485,0.241,0.767,0.2,1.05-0.122
		c0.284-0.32,1.213-1.403,1.536-1.885c0.323-0.481,0.647-0.4,1.091-0.24c0.444,0.158,2.83,1.323,3.315,1.564
		c0.484,0.241,0.806,0.361,0.929,0.561c0.121,0.201,0.121,1.165-0.282,2.288c-0.405,1.125-2.385,2.208-3.273,2.288
		c-0.89,0.081-0.89,0.723-5.821-1.203c-4.927-1.927-8.04-6.944-8.281-7.263c-0.186-0.245-1.241-1.638-1.73-3.338
		c-0.151-0.526-0.251-1.079-0.251-1.638C24.732,25.332,25.985,24.17,26.43,23.688z"/>
</g>
</svg>
