<?xml version="1.0" encoding="iso-8859-1"?>
<!-- Generator: Adobe Illustrator 22.1.0, SVG Export Plug-In . SVG Version: 6.00 Build 0)  -->
<svg version="1.1" id="&#x421;&#x43B;&#x43E;&#x439;_1"
	 xmlns="http://www.w3.org/2000/svg" xmlns:xlink="http://www.w3.org/1999/xlink" x="0px" y="0px" viewBox="0 0 68.03 68.029"
	 style="enable-background:new 0 0 68.03 68.029;" xml:space="preserve">
<g>
	<path style="fill:#fff;" d="M34.015,68.011c18.787,0,34.015-15.228,34.015-34.015c0-18.786-15.229-34.015-34.015-34.015
		C15.229-0.019,0,15.21,0,33.996C0,52.783,15.229,68.011,34.015,68.011z M9.932,24.745c1.209-0.672,4.595-0.53,8.049-0.436
		c1.028,0.029,4.016,7.472,4.785,8.706c3.114,4.988,4.093,1.302,4.134,0.87c0.845-8.944-1.344-8.538-2.611-8.704
		c0.955-2.899,7.613-2.394,7.613-2.394s2.227,0.539,3.045,1.088c0.338,0.226,0.714,0.95,0.654,3.264
		c-0.091,3.488-0.445,8.245,1.088,8.268c1.183,0.018,3.054-2.763,4.569-5.658c1.338-2.559,2.369-5.042,2.826-5.221
		c0.493-0.194,2.632-0.206,4.786-0.219c2.108-0.01,4.234-0.029,4.785,0.436c1.114,0.94-0.822,3.992-2.61,6.527
		c-1.467,2.082-4.292,4.824-4.134,6.309c0.219,2.076,7.508,6.439,6.961,9.795c-0.245,1.501-2.767,1.233-5.003,1.306
		c-2.067,0.066-4.088-0.07-5.002-0.435c-1.512-0.604-5.481-5.861-6.527-5.658c-2.324,0.452-1.482,5.319-2.175,5.658
		c-0.993,0.486-4.215,0.34-5.438,0.216c-6.545-1.101-10.338-5.486-13.922-11.097C11.424,30.504,8.83,25.359,9.932,24.745z"/>
</g>
</svg>
