<?xml version="1.0" encoding="iso-8859-1"?>
<!-- Generator: Adobe Illustrator 22.1.0, SVG Export Plug-In . SVG Version: 6.00 Build 0)  -->
<svg version="1.1" id="&#x421;&#x43B;&#x43E;&#x439;_1"
	 xmlns="http://www.w3.org/2000/svg" xmlns:xlink="http://www.w3.org/1999/xlink" x="0px" y="0px" viewBox="0 0 142 145"
	 style="enable-background:new 0 0 142 145;" xml:space="preserve">
<path style="fill:#fff;" d="M57.218,118.937l-8.741,20.449c-0.793,1.869-2.019,3.291-3.673,4.27
	c-1.659,0.98-3.443,1.426-5.355,1.331c-1.727-0.046-3.327-0.547-4.797-1.504c-1.47-0.957-2.579-2.32-3.325-4.097L0.735,67.848
	c-0.513-1.167-0.757-2.356-0.734-3.573c0.023-1.212,0.258-2.343,0.7-3.395c0.442-1.048,1.096-2.005,1.96-2.871
	c0.864-0.861,1.9-1.527,3.115-1.994c1.121-0.467,2.263-0.688,3.432-0.665c1.164,0.025,2.263,0.257,3.288,0.7
	c1.028,0.444,1.962,1.075,2.801,1.891c0.841,0.816,1.515,1.809,2.03,2.976l22.4,52.502l7.613-17.733L57.218,118.937z"/>
<path style="fill:#fff;" d="M78.159,113.35L124.306,5.566c0.467-1.164,1.121-2.158,1.96-2.974
	c0.841-0.816,1.787-1.447,2.835-1.891c1.051-0.442,2.16-0.675,3.327-0.7c1.164-0.023,2.333,0.198,3.5,0.665
	c1.164,0.467,2.192,1.119,3.078,1.96c0.886,0.841,1.552,1.798,1.996,2.871c0.442,1.073,0.677,2.217,0.7,3.43
	c0.023,1.215-0.221,2.404-0.734,3.571L86.629,139.386c-0.747,1.727-1.855,3.081-3.325,4.061c-1.47,0.98-3.069,1.495-4.797,1.54
	h0.002c-1.727-0.046-3.327-0.547-4.797-1.504c-1.47-0.957-2.58-2.32-3.325-4.097L39.797,67.848
	c-0.513-1.167-0.756-2.356-0.734-3.573c0.023-1.212,0.258-2.343,0.7-3.395c0.442-1.048,1.096-2.005,1.96-2.871
	c0.864-0.861,1.9-1.527,3.115-1.994c1.121-0.467,2.263-0.688,3.432-0.665c1.164,0.025,2.263,0.257,3.288,0.7
	c1.028,0.444,1.962,1.075,2.801,1.891c0.841,0.816,1.515,1.809,2.031,2.976L78.159,113.35z"/>
<path style="fill:#fff;" d="M63.366,20.943c-0.301-0.03-0.557-0.153-0.764-0.358c-0.208-0.208-0.305-0.471-0.305-0.785v-9.123
	c0-0.161,0.03-0.311,0.087-0.449c0.062-0.14,0.141-0.262,0.245-0.372c0.104-0.106,0.23-0.191,0.371-0.249
	c0.144-0.058,0.294-0.091,0.458-0.091h6.004c0.159,0,0.312,0.032,0.451,0.091c0.14,0.058,0.258,0.143,0.361,0.249
	c0.101,0.11,0.183,0.233,0.243,0.372c0.056,0.139,0.09,0.288,0.09,0.449c0,0.159-0.034,0.31-0.09,0.453
	c-0.06,0.139-0.142,0.263-0.243,0.366c-0.103,0.107-0.221,0.194-0.361,0.251c-0.139,0.062-0.291,0.09-0.451,0.09h-4.848v2.074h3.858
	c0.162-0.005,0.309,0.02,0.451,0.081c0.135,0.065,0.263,0.147,0.372,0.254c0.103,0.108,0.188,0.232,0.25,0.381
	c0.055,0.145,0.085,0.301,0.085,0.457c0,0.165-0.03,0.311-0.085,0.449c-0.062,0.139-0.147,0.261-0.25,0.363
	c-0.109,0.102-0.237,0.183-0.372,0.237c-0.142,0.062-0.288,0.087-0.451,0.087h-3.858v2.4h4.848c0.159,0,0.312,0.026,0.451,0.095
	c0.14,0.062,0.258,0.147,0.361,0.253c0.101,0.11,0.183,0.234,0.243,0.372c0.056,0.147,0.09,0.298,0.09,0.459
	c0,0.158-0.034,0.311-0.09,0.453c-0.06,0.137-0.142,0.258-0.243,0.359c-0.103,0.107-0.221,0.188-0.361,0.248
	c-0.139,0.062-0.291,0.088-0.451,0.083H63.366z"/>
<path style="fill:#fff;" d="M76.504,13.576l3.273-3.66c0.102-0.116,0.22-0.206,0.35-0.276c0.131-0.064,0.266-0.105,0.404-0.11
	c0.134-0.014,0.272,0.003,0.406,0.051c0.139,0.048,0.269,0.125,0.384,0.234c0.121,0.102,0.212,0.229,0.278,0.367
	c0.067,0.142,0.107,0.286,0.119,0.436c0.009,0.146-0.009,0.292-0.056,0.444c-0.048,0.147-0.129,0.279-0.233,0.401l-3.408,3.819
	l3.333,3.733c0.117,0.123,0.199,0.261,0.25,0.404c0.057,0.148,0.083,0.295,0.083,0.443c0,0.151-0.03,0.292-0.089,0.426
	c-0.058,0.134-0.148,0.254-0.269,0.365c-0.122,0.1-0.256,0.184-0.401,0.232c-0.146,0.052-0.291,0.074-0.439,0.065
	c-0.145-0.01-0.289-0.048-0.428-0.113c-0.132-0.066-0.262-0.159-0.366-0.276l-3.203-3.571l-3.187,3.571
	c-0.105,0.117-0.23,0.21-0.371,0.276c-0.141,0.065-0.282,0.103-0.428,0.113c-0.146,0.009-0.294-0.013-0.433-0.065
	c-0.148-0.048-0.283-0.132-0.4-0.232c-0.12-0.11-0.211-0.233-0.267-0.368c-0.061-0.14-0.089-0.282-0.089-0.424
	c0-0.146,0.024-0.292,0.081-0.441c0.052-0.143,0.131-0.28,0.249-0.404l3.324-3.733l-3.404-3.819
	c-0.108-0.121-0.187-0.253-0.233-0.401c-0.049-0.152-0.066-0.298-0.054-0.444c0.011-0.15,0.048-0.295,0.118-0.436
	c0.064-0.139,0.155-0.265,0.275-0.367c0.117-0.109,0.246-0.186,0.384-0.234c0.133-0.048,0.273-0.065,0.41-0.051
	c0.143,0.005,0.28,0.047,0.405,0.11c0.133,0.07,0.254,0.16,0.359,0.276L76.504,13.576z"/>
<path style="fill:#fff;" d="M87.33,9.515c0.601,0,1.163,0.117,1.692,0.34c0.521,0.226,0.984,0.537,1.377,0.926
	c0.392,0.389,0.7,0.849,0.935,1.373c0.222,0.525,0.341,1.091,0.341,1.691c0,0.596-0.119,1.159-0.341,1.678
	c-0.235,0.523-0.543,0.981-0.935,1.367c-0.393,0.388-0.856,0.694-1.377,0.917c-0.529,0.224-1.091,0.339-1.692,0.339h-2.107V19.8
	c0,0.158-0.029,0.311-0.091,0.453c-0.055,0.137-0.142,0.258-0.249,0.357c-0.105,0.104-0.23,0.181-0.37,0.243
	c-0.14,0.061-0.291,0.091-0.45,0.091s-0.31-0.03-0.447-0.091c-0.145-0.062-0.263-0.139-0.377-0.243
	c-0.103-0.1-0.185-0.22-0.245-0.357c-0.062-0.142-0.092-0.295-0.092-0.453v-9.123c0-0.161,0.03-0.311,0.092-0.449
	c0.06-0.14,0.142-0.262,0.245-0.372c0.114-0.106,0.232-0.191,0.377-0.249c0.137-0.058,0.288-0.091,0.447-0.091H87.33z
	 M85.223,11.836v3.989h2.143c0.267,0,0.522-0.05,0.76-0.159c0.246-0.109,0.457-0.253,0.636-0.435
	c0.183-0.186,0.327-0.397,0.431-0.634c0.111-0.239,0.162-0.488,0.162-0.752c0-0.27-0.055-0.523-0.162-0.766
	c-0.113-0.237-0.256-0.449-0.436-0.638c-0.186-0.181-0.399-0.328-0.637-0.442c-0.242-0.106-0.491-0.164-0.754-0.164H85.223z"/>
<path style="fill:#fff;" d="M99.75,12.027c0.422,0.182,0.793,0.432,1.11,0.749c0.317,0.316,0.562,0.684,0.746,1.108
	c0.067,0.165,0.125,0.338,0.161,0.513c0.058,0.262,0.296,0.453,0.561,0.453h1.188c0.354,0,0.639-0.323,0.58-0.675
	c-0.027-0.162-0.065-0.321-0.113-0.48c-0.135-0.495-0.334-0.957-0.587-1.389c-0.253-0.43-0.553-0.824-0.907-1.177
	c-0.357-0.354-0.751-0.657-1.18-0.906c-0.432-0.252-0.893-0.446-1.386-0.584c-0.154-0.043-0.309-0.077-0.468-0.107
	c-0.353-0.061-0.674,0.224-0.674,0.584v1.181c0,0.274,0.183,0.508,0.447,0.565C99.408,11.901,99.579,11.955,99.75,12.027"/>
<path style="fill:#fff;" d="M95.19,13.884c0.181-0.423,0.428-0.792,0.736-1.108c0.316-0.317,0.679-0.567,1.106-0.749
	c0.168-0.073,0.347-0.13,0.528-0.168c0.259-0.061,0.448-0.293,0.448-0.566v-1.186c0-0.356-0.319-0.638-0.672-0.578
	c-0.17,0.029-0.337,0.064-0.502,0.11c-0.493,0.137-0.955,0.331-1.383,0.584c-0.429,0.249-0.818,0.552-1.172,0.906
	c-0.353,0.353-0.647,0.747-0.897,1.177c-0.252,0.432-0.448,0.894-0.585,1.389c-0.043,0.159-0.077,0.317-0.103,0.48
	c-0.061,0.352,0.22,0.675,0.576,0.675h1.188c0.272,0,0.509-0.187,0.563-0.453C95.065,14.222,95.116,14.049,95.19,13.884"/>
<path style="fill:#fff;" d="M101.606,16.608c-0.184,0.429-0.429,0.795-0.746,1.11c-0.317,0.311-0.688,0.556-1.11,0.735
	c-0.168,0.068-0.34,0.118-0.514,0.158c-0.267,0.058-0.454,0.295-0.454,0.566v1.166c0,0.362,0.328,0.638,0.688,0.581
	c0.402-0.07,0.793-0.177,1.174-0.34c0.704-0.302,1.321-0.719,1.846-1.244c0.523-0.527,0.94-1.139,1.25-1.843
	c0.165-0.38,0.275-0.779,0.341-1.192c0.061-0.357-0.212-0.686-0.575-0.686h-1.172c-0.27,0-0.508,0.188-0.565,0.46
	C101.73,16.259,101.676,16.439,101.606,16.608"/>
<path style="fill:#fff;" d="M97.032,18.453c-0.427-0.18-0.789-0.424-1.106-0.735c-0.309-0.315-0.556-0.681-0.736-1.11
	c-0.077-0.169-0.13-0.349-0.171-0.535c-0.055-0.265-0.291-0.454-0.56-0.454h-1.173c-0.361,0-0.638,0.329-0.581,0.686
	c0.073,0.414,0.178,0.812,0.338,1.192c0.303,0.704,0.714,1.316,1.236,1.843c0.519,0.525,1.132,0.942,1.839,1.244
	c0.382,0.166,0.791,0.275,1.21,0.344c0.355,0.058,0.682-0.215,0.682-0.579v-1.171c0-0.271-0.189-0.51-0.455-0.562
	C97.375,18.577,97.194,18.524,97.032,18.453"/>
<path style="fill:#fff;" d="M38.297,11.189h-1.564v3.308h1.564c0.965,0,1.589-0.648,1.589-1.655
	C39.885,11.84,39.262,11.189,38.297,11.189z"/>
<path style="fill:#fff;" d="M13.764,11.189h-1.56v3.308h1.56c0.964,0,1.589-0.648,1.589-1.655
	C15.352,11.84,14.728,11.189,13.764,11.189z"/>
<path style="fill:#fff;" d="M61.207,29.063L51.025,16.708c-0.053-0.05-0.092-0.095-0.132-0.147l-0.055-0.056l0.004-0.004
	c-0.157-0.234-0.256-0.516-0.256-0.822c0-0.317,0.104-0.614,0.286-0.854l-0.003-0.002l0.01-0.007
	c0.045-0.064,0.103-0.123,0.164-0.175c0.004-0.003,0.008-0.013,0.015-0.017l10.193-12.37c0,0,0.243-0.239,0.368-0.487
	c0.111-0.225,0.158-0.56,0.158-0.56c0-0.63-0.505-1.164-1.129-1.205H1.593C0.716,0,0,0.713,0,1.591v28.156
	c0,0.869,0.716,1.582,1.593,1.582l59.015-0.016c0.618-0.04,1.123-0.575,1.123-1.2c0,0-0.046-0.338-0.155-0.56
	C61.451,29.306,61.207,29.063,61.207,29.063z M18.51,17.395c-1.176,1.068-2.789,1.656-4.534,1.656h-1.773v4.729
	c0,0.427-0.343,0.773-0.768,0.773H8.01c-0.205,0-0.396-0.087-0.54-0.231c-0.147-0.146-0.225-0.34-0.225-0.543L7.271,7.41
	c0-0.424,0.345-0.768,0.768-0.768h5.793c1.836,0,3.502,0.605,4.702,1.708c1.236,1.13,1.913,2.736,1.913,4.514
	C20.447,14.656,19.765,16.266,18.51,17.395z M28.075,23.779c0,0.427-0.344,0.769-0.768,0.769H23.88
	c-0.422,0-0.768-0.342-0.768-0.769V7.299c0-0.416,0.336-0.76,0.754-0.763l1.714-0.03h0.024l1.711,0.03
	c0.422,0.003,0.76,0.348,0.76,0.763V23.779z M46.153,24.093c-0.126,0.272-0.401,0.44-0.693,0.44h-3.839
	c-0.225,0-0.433-0.095-0.587-0.269l-4.301-5.123v4.638c0,0.427-0.336,0.773-0.761,0.773h-3.427c-0.207,0-0.399-0.087-0.539-0.231
	c-0.147-0.146-0.227-0.34-0.227-0.543L31.811,7.41c0-0.424,0.341-0.768,0.764-0.768h5.792c1.832,0,3.504,0.605,4.702,1.708
	c1.233,1.13,1.911,2.736,1.911,4.514c0,1.377-0.396,2.646-1.151,3.67c-0.515,0.695-1.18,1.27-1.958,1.693l4.181,5.051
	C46.235,23.505,46.274,23.827,46.153,24.093z"/>
</svg>
